# xmcd
#
# Track frame offsets: 
#        183
#        24678
#        48473
#        68188
#        127043
#        138538
#        172968
#        204550
#        236170
#
# Disc length: 3544 seconds
#
# Revision: 4
# Processed by: cddbd v1.5.2PL0 Copyright (c) Steve Scherf et al.
# Submitted via: ExactAudioCopy v0.99pb4
#
DISCID=860dd609
DTITLE=Munyungo Jackson - Munyungo - Vital 1992
DYEAR=1992
DGENRE=Jazz
TTITLE0=Columbiana
TTITLE1=So Happy
TTITLE2=Drums, Drums, Drums
TTITLE3=Trees
TTITLE4=Be on Times
TTITLE5=Peter's Bells
TTITLE6=Shango Bakoso
TTITLE7=On Green Dolphin Street
TTITLE8=Oye Samba
EXTD=YEAR: 1992
EXTT0=
EXTT1=
EXTT2=
EXTT3=
EXTT4=
EXTT5=
EXTT6=
EXTT7=
EXTT8=
PLAYORDER=
